# xmcd CD database file
# Copyright (C) 1993-1998 Ti Kan
#
# Track frame offsets:
#  150
#  11732
#  25215
#  34780
#  47700
#  58235
#  70542
#  83907
#  97552
#  108590
#  121970
#  136567
#  149590
#  160682
#  173550
#  185207
#  197787
#  209217
#  221280
#  232772
#  244467
#  254525
#  265100
#  275290
#  287250
#
# Disc length: 3996 seconds
#
# Revision: 1
# Processed by: cddbd v1.4b41PL1 Copyright (c) Steve Scherf et al.
# Submitted via: CDWizzard Release:4.35
#
DISCID=650f9a19
DTITLE=Spaniels - Goodnight Sweetheart, Goodnight
DYEAR=1900
DGENRE=
TTITLE0=Baby, It's You
TTITLE1=Since I Fell For You
TTITLE2=Bounce
TTITLE3=The Bells Ring Out
TTITLE4=House Cleaning
TTITLE5=Goodnight Sweetheart, Goodnight
TTITLE6=Let's Make Up
TTITLE7=Play It Cool
TTITLE8=Painted Picture
TTITLE9=Dear Heart
TTITLE10=False Love
TTITLE11=Please Don't Tease
TTITLE12=I Need Your Kisses
TTITLE13=You Gave Me Peace Of Mind
TTITLE14=I Lost You
TTITLE15=I.O.U.
TTITLE16=A Lovely Way To Spend An Evening
TTITLE17=You're Gonna Cry
TTITLE18=Stormy Weather
TTITLE19=Little Joe
TTITLE20=A Rockin' Good Way
TTITLE21=These Three Words
TTITLE22=Red Sails In The Sunset
TTITLE23=People Will Say We're In Love
TTITLE24=So Deep Within
EXTD=
EXTT0=
EXTT1=
EXTT2=
EXTT3=
EXTT4=
EXTT5=
EXTT6=
EXTT7=
EXTT8=
EXTT9=
EXTT10=
EXTT11=
EXTT12=
EXTT13=
EXTT14=
EXTT15=
EXTT16=
EXTT17=
EXTT18=
EXTT19=
EXTT20=
EXTT21=
EXTT22=
EXTT23=
EXTT24=
PLAYORDER=
